<svg xmlns="http://www.w3.org/2000/svg" viewBox="0 0 960 376" role="img" aria-labelledby="title desc"><title id="title">Bank coverage decomposition</title><desc id="desc">Gold spans are split into cataloged exact matches, cataloged exact-span misses, cataloged wrong mappings, and entities outside the bank. Outside-bank spans measure bank construction coverage, not NERB matcher recall. Combined: 142 cataloged exact and correctly mapped, 4 cataloged exact-span misses, 0 cataloged wrong mappings, and 1,247 outside the bank, from 1,393 gold spans. Contact: 122 cataloged exact and correctly mapped, 4 cataloged exact-span misses, 0 cataloged wrong mappings, and 0 outside the bank, from 126 gold spans. Person: 20 cataloged exact and correctly mapped, 0 cataloged exact-span misses, 0 cataloged wrong mappings, and 1,247 outside the bank, from 1,267 gold spans.</desc><rect width="100%" height="100%" fill="#0b1020"/><style>text{font-family:ui-sans-serif,system-ui,sans-serif;fill:#e8eefc}.title{font-size:25px;font-weight:700}.sub{font-size:14px;fill:#aebbd4}.label{font-size:15px;font-weight:700}.value{font-size:13px;fill:#cbd6eb}.legend{font-size:13px;fill:#cbd6eb}</style><text class="title" x="34" y="38">Bank coverage decomposition</text><text class="sub" x="34" y="64">Outside-bank spans are a catalog-construction result, not matcher misses.</text><text class="label" x="34" y="110">Combined</text><text class="value" x="260" y="110">142 exact · 4 span miss · 0 wrong mapping · 1,247 outside</text><rect x="260" y="120" width="620" height="24" rx="4" fill="#202a42"/><rect x="260" y="120" width="63" height="24" fill="#29c7a9"/><rect x="323" y="120" width="2" height="24" fill="#f7c948"/><rect x="325" y="120" width="555" height="24" fill="#71819f"/><text class="label" x="34" y="184">Contact</text><text class="value" x="260" y="184">122 exact · 4 span miss · 0 wrong mapping · 0 outside</text><rect x="260" y="194" width="620" height="24" rx="4" fill="#202a42"/><rect x="260" y="194" width="600" height="24" fill="#29c7a9"/><rect x="860" y="194" width="20" height="24" fill="#f7c948"/><text class="label" x="34" y="258">Person</text><text class="value" x="260" y="258">20 exact · 0 span miss · 0 wrong mapping · 1,247 outside</text><rect x="260" y="268" width="620" height="24" rx="4" fill="#202a42"/><rect x="260" y="268" width="10" height="24" fill="#29c7a9"/><rect x="270" y="268" width="610" height="24" fill="#71819f"/><rect x="225" y="332" width="14" height="14" fill="#29c7a9"/><text class="legend" x="247" y="344">cataloged exact</text><rect x="390" y="332" width="14" height="14" fill="#f7c948"/><text class="legend" x="412" y="344">exact-span miss</text><rect x="555" y="332" width="14" height="14" fill="#f05b67"/><text class="legend" x="577" y="344">wrong mapping</text><rect x="705" y="332" width="14" height="14" fill="#71819f"/><text class="legend" x="727" y="344">outside bank</text></svg>
