<svg xmlns="http://www.w3.org/2000/svg" viewBox="0 0 960 368" role="img" aria-labelledby="title desc"><title id="title">Known-bank contract and natural diagnostic</title><desc id="desc">The first three rows are exhaustive conformance; the last is a stricter natural exact-span check. Active patterns exercised: 13,201 of 13,201 active patterns exercised; minimum threshold 100.00%; result pass. Approved cases mapped: 39,604 of 39,604 approved cases detected and correctly mapped; minimum threshold 100.00%; result pass. Negative cases clean: 1,210 of 1,210 required negative and adversarial cases without unexpected matches; minimum threshold 100.00%; result pass. Natural exact matches: 142 of 146 catalog-qualified spans detected exactly and correctly mapped; minimum threshold 100.00%; result fail.</desc><rect width="100%" height="100%" fill="#0b1020"/><style>text{font-family:ui-sans-serif,system-ui,sans-serif;fill:#e8eefc}.title{font-size:25px;font-weight:700}.sub{font-size:14px;fill:#aebbd4}.label{font-size:15px}.value{font-size:14px;font-weight:700}.value-bg{fill:#0b1020;stroke:#53617d;stroke-width:1}.axis{stroke:#53617d;stroke-width:1}.threshold{stroke:#f7c948;stroke-width:3}</style><text class="title" x="34" y="38">Known-bank contract and natural diagnostic</text><text class="sub" x="34" y="64">The first three rows are exhaustive conformance; the last is a stricter natural exact-span check.</text><line class="axis" x1="260" y1="88" x2="760" y2="88"/><text class="label" x="34" y="130">Active patterns exercised</text><rect x="260" y="108" width="500" height="28" rx="5" fill="#202a42"/><rect x="260" y="108" width="500" height="28" rx="5" fill="#29c7a9"/><rect class="value-bg" x="778" y="108" width="150" height="28" rx="5"/><text class="value" x="921" y="128" text-anchor="end">13,201 / 13,201</text><line class="threshold" x1="760" y1="104" x2="760" y2="140"/><text class="label" x="34" y="192">Approved cases mapped</text><rect x="260" y="170" width="500" height="28" rx="5" fill="#202a42"/><rect x="260" y="170" width="500" height="28" rx="5" fill="#29c7a9"/><rect class="value-bg" x="778" y="170" width="150" height="28" rx="5"/><text class="value" x="921" y="190" text-anchor="end">39,604 / 39,604</text><line class="threshold" x1="760" y1="166" x2="760" y2="202"/><text class="label" x="34" y="254">Negative cases clean</text><rect x="260" y="232" width="500" height="28" rx="5" fill="#202a42"/><rect x="260" y="232" width="500" height="28" rx="5" fill="#29c7a9"/><rect class="value-bg" x="778" y="232" width="150" height="28" rx="5"/><text class="value" x="921" y="252" text-anchor="end">1,210 / 1,210</text><line class="threshold" x1="760" y1="228" x2="760" y2="264"/><text class="label" x="34" y="316">Natural exact matches</text><rect x="260" y="294" width="500" height="28" rx="5" fill="#202a42"/><rect x="260" y="294" width="486" height="28" rx="5" fill="#f05b67"/><rect class="value-bg" x="778" y="294" width="150" height="28" rx="5"/><text class="value" x="921" y="314" text-anchor="end">142 / 146</text><line class="threshold" x1="760" y1="290" x2="760" y2="326"/></svg>
