<svg xmlns="http://www.w3.org/2000/svg" viewBox="0 0 960 368" role="img" aria-labelledby="title desc"><title id="title">Standalone privacy-redaction assessment</title><desc id="desc">This application-level gate includes unknown entities and sits outside NERB&#x27;s known-bank guarantee. Open-world exact-span recall: 142 of 1,393 labeled spans detected exactly; minimum threshold 95.00%; result fail. Sensitive-character coverage: 3,183 of 14,916 sensitive characters covered; minimum threshold 98.00%; result fail. Docs without exact-span miss: 7 of 69 documents without an exact-span miss; minimum threshold 95.00%; result fail. Precision (diagnostic): 142 of 149 predicted spans exact; no threshold; diagnostic result.</desc><rect width="100%" height="100%" fill="#0b1020"/><style>text{font-family:ui-sans-serif,system-ui,sans-serif;fill:#e8eefc}.title{font-size:25px;font-weight:700}.sub{font-size:14px;fill:#aebbd4}.label{font-size:15px}.value{font-size:14px;font-weight:700}.value-bg{fill:#0b1020;stroke:#53617d;stroke-width:1}.axis{stroke:#53617d;stroke-width:1}.threshold{stroke:#f7c948;stroke-width:3}</style><text class="title" x="34" y="38">Standalone privacy-redaction assessment</text><text class="sub" x="34" y="64">This application-level gate includes unknown entities and sits outside NERB&#x27;s known-bank guarantee.</text><line class="axis" x1="260" y1="88" x2="760" y2="88"/><text class="label" x="34" y="130">Open-world exact-span recall</text><rect x="260" y="108" width="500" height="28" rx="5" fill="#202a42"/><rect x="260" y="108" width="51" height="28" rx="5" fill="#f05b67"/><rect class="value-bg" x="778" y="108" width="150" height="28" rx="5"/><text class="value" x="921" y="128" text-anchor="end">10.19%</text><line class="threshold" x1="735" y1="104" x2="735" y2="140"/><text class="label" x="34" y="192">Sensitive-character coverage</text><rect x="260" y="170" width="500" height="28" rx="5" fill="#202a42"/><rect x="260" y="170" width="107" height="28" rx="5" fill="#f05b67"/><rect class="value-bg" x="778" y="170" width="150" height="28" rx="5"/><text class="value" x="921" y="190" text-anchor="end">21.34%</text><line class="threshold" x1="750" y1="166" x2="750" y2="202"/><text class="label" x="34" y="254">Docs without exact-span miss</text><rect x="260" y="232" width="500" height="28" rx="5" fill="#202a42"/><rect x="260" y="232" width="51" height="28" rx="5" fill="#f05b67"/><rect class="value-bg" x="778" y="232" width="150" height="28" rx="5"/><text class="value" x="921" y="252" text-anchor="end">7 / 69</text><line class="threshold" x1="735" y1="228" x2="735" y2="264"/><text class="label" x="34" y="316">Precision (diagnostic)</text><rect x="260" y="294" width="500" height="28" rx="5" fill="#202a42"/><rect x="260" y="294" width="477" height="28" rx="5" fill="#65a9ff"/><rect class="value-bg" x="778" y="294" width="150" height="28" rx="5"/><text class="value" x="921" y="314" text-anchor="end">95.30%</text></svg>
